name rise49.5252peak65.1548fall88.8305.mot
datacolumns 19
datarows 33
range 19.12992400000000 19.18325400000000
endheader
time	ground_force1_vx	ground_force1_vy	ground_force1_vz	ground_force1_px	ground_force1_py	ground_force1_pz	ground_force2_vx	ground_force2_vy	ground_force2_vz	ground_force2_px	ground_force2_py	ground_force2_pz	ground_torque1_x	ground_torque1_y	ground_torque1_z	ground_torque2_x	ground_torque2_y	ground_torque2_z	
19.12992400000000	51.70039700000000	732.15384500000005	55.18759600000000	0.35912800000000	0.00000000000000	0.12158000000000	0.01120400000000	7.18607100000000	0.54065300000000	0.00000000000000	0.00000000000000	0.00000000000000	0.00000000000000	26.70420900000000	0.00000000000000	0.00000000000000	0.05264800000000	0.00000000000000	
19.13158800000000	51.17352400000000	736.35767299999998	55.43440800000000	0.35785100000000	0.00000000000000	0.12159500000000	0.19530500000000	3.60790000000000	0.33014900000000	0.00000000000000	0.00000000000000	0.00000000000000	0.00000000000000	26.84480700000000	0.00000000000000	0.00000000000000	0.05245500000000	0.00000000000000	
19.13325800000000	50.65017100000000	740.48299299999996	55.68849800000000	0.35661300000000	0.00000000000000	0.12161100000000	0.00000000000000	0.00000000000000	0.00000000000000	0.00000000000000	0.00000000000000	0.00000000000000	0.00000000000000	26.99152900000000	0.00000000000000	0.00000000000000	0.00000000000000	0.00000000000000	
19.13492400000000	50.13076200000000	744.52493900000002	55.94924000000000	0.35541300000000	0.00000000000000	0.12162700000000	0.00000000000000	0.00000000000000	0.00000000000000	0.00000000000000	0.00000000000000	0.00000000000000	0.00000000000000	27.14392900000000	0.00000000000000	0.00000000000000	0.00000000000000	0.00000000000000	
19.13658800000000	49.61565000000000	748.47861300000000	56.21590900000000	0.35425200000000	0.00000000000000	0.12164400000000	0.00000000000000	0.00000000000000	0.00000000000000	0.00000000000000	0.00000000000000	0.00000000000000	0.00000000000000	27.30150000000000	0.00000000000000	0.00000000000000	0.00000000000000	0.00000000000000	
19.13825300000000	49.10511400000000	752.33911400000000	56.48768300000000	0.35312800000000	0.00000000000000	0.12166100000000	0.00000000000000	0.00000000000000	0.00000000000000	0.00000000000000	0.00000000000000	0.00000000000000	0.00000000000000	27.46367300000000	0.00000000000000	0.00000000000000	0.00000000000000	0.00000000000000	
19.13992900000000	48.59936700000000	756.10155899999995	56.76365500000000	0.35204300000000	0.00000000000000	0.12167900000000	0.00000000000000	0.00000000000000	0.00000000000000	0.00000000000000	0.00000000000000	0.00000000000000	0.00000000000000	27.62982500000000	0.00000000000000	0.00000000000000	0.00000000000000	0.00000000000000	
19.14159300000000	48.09855400000000	759.76110300000005	57.04283700000000	0.35099500000000	0.00000000000000	0.12169700000000	0.00000000000000	0.00000000000000	0.00000000000000	0.00000000000000	0.00000000000000	0.00000000000000	0.00000000000000	27.79928200000000	0.00000000000000	0.00000000000000	0.00000000000000	0.00000000000000	
19.14325800000000	47.60275800000000	763.31296699999996	57.32416600000000	0.34998400000000	0.00000000000000	0.12171500000000	0.00000000000000	0.00000000000000	0.00000000000000	0.00000000000000	0.00000000000000	0.00000000000000	0.00000000000000	27.97132300000000	0.00000000000000	0.00000000000000	0.00000000000000	0.00000000000000	
19.14492000000000	47.11200100000000	766.75245600000005	57.60651800000000	0.34900800000000	0.00000000000000	0.12173300000000	0.00000000000000	0.00000000000000	0.00000000000000	0.00000000000000	0.00000000000000	0.00000000000000	0.00000000000000	28.14519000000000	0.00000000000000	0.00000000000000	0.00000000000000	0.00000000000000	
19.14658500000000	46.62625000000000	770.07498299999997	57.88870900000000	0.34806800000000	0.00000000000000	0.12175000000000	0.00000000000000	0.00000000000000	0.00000000000000	0.00000000000000	0.00000000000000	0.00000000000000	0.00000000000000	28.32008700000000	0.00000000000000	0.00000000000000	0.00000000000000	0.00000000000000	
19.14825300000000	46.14541900000000	773.27608999999995	58.16951000000000	0.34716100000000	0.00000000000000	0.12176800000000	0.00000000000000	0.00000000000000	0.00000000000000	0.00000000000000	0.00000000000000	0.00000000000000	0.00000000000000	28.49518600000000	0.00000000000000	0.00000000000000	0.00000000000000	0.00000000000000	
19.14992100000000	45.66937300000000	776.35147099999995	58.44765100000000	0.34628700000000	0.00000000000000	0.12178500000000	0.00000000000000	0.00000000000000	0.00000000000000	0.00000000000000	0.00000000000000	0.00000000000000	0.00000000000000	28.66964000000000	0.00000000000000	0.00000000000000	0.00000000000000	0.00000000000000	
19.15158600000000	45.19793200000000	779.29698900000005	58.72183500000000	0.34544400000000	0.00000000000000	0.12180200000000	0.00000000000000	0.00000000000000	0.00000000000000	0.00000000000000	0.00000000000000	0.00000000000000	0.00000000000000	28.84257600000000	0.00000000000000	0.00000000000000	0.00000000000000	0.00000000000000	
19.15325300000000	44.73087800000000	782.10869500000001	58.99074100000000	0.34463000000000	0.00000000000000	0.12181900000000	0.00000000000000	0.00000000000000	0.00000000000000	0.00000000000000	0.00000000000000	0.00000000000000	0.00000000000000	29.01311300000000	0.00000000000000	0.00000000000000	0.00000000000000	0.00000000000000	
19.15492100000000	44.26795200000000	784.78285000000005	59.25304000000000	0.34384500000000	0.00000000000000	0.12183500000000	0.00000000000000	0.00000000000000	0.00000000000000	0.00000000000000	0.00000000000000	0.00000000000000	0.00000000000000	29.18035600000000	0.00000000000000	0.00000000000000	0.00000000000000	0.00000000000000	
19.15659800000000	43.80886600000000	787.31593799999996	59.50739700000000	0.34308600000000	0.00000000000000	0.12185000000000	0.00000000000000	0.00000000000000	0.00000000000000	0.00000000000000	0.00000000000000	0.00000000000000	0.00000000000000	29.34341200000000	0.00000000000000	0.00000000000000	0.00000000000000	0.00000000000000	
19.15826800000000	43.35330300000000	789.70468400000004	59.75248500000000	0.34235200000000	0.00000000000000	0.12186500000000	0.00000000000000	0.00000000000000	0.00000000000000	0.00000000000000	0.00000000000000	0.00000000000000	0.00000000000000	29.50138700000000	0.00000000000000	0.00000000000000	0.00000000000000	0.00000000000000	
19.15992300000000	42.90092200000000	791.94607099999996	59.98699400000000	0.34164100000000	0.00000000000000	0.12187900000000	0.00000000000000	0.00000000000000	0.00000000000000	0.00000000000000	0.00000000000000	0.00000000000000	0.00000000000000	29.65339600000000	0.00000000000000	0.00000000000000	0.00000000000000	0.00000000000000	
19.16158900000000	42.45136200000000	794.03734899999995	60.20963700000000	0.34095100000000	0.00000000000000	0.12189100000000	0.00000000000000	0.00000000000000	0.00000000000000	0.00000000000000	0.00000000000000	0.00000000000000	0.00000000000000	29.79856600000000	0.00000000000000	0.00000000000000	0.00000000000000	0.00000000000000	
19.16325800000000	42.00424900000000	795.97605199999998	60.41915800000000	0.34028000000000	0.00000000000000	0.12190300000000	0.00000000000000	0.00000000000000	0.00000000000000	0.00000000000000	0.00000000000000	0.00000000000000	0.00000000000000	29.93604500000000	0.00000000000000	0.00000000000000	0.00000000000000	0.00000000000000	
19.16493200000000	41.55919500000000	797.76000699999997	60.61434300000000	0.33962500000000	0.00000000000000	0.12191400000000	0.00000000000000	0.00000000000000	0.00000000000000	0.00000000000000	0.00000000000000	0.00000000000000	0.00000000000000	30.06499900000000	0.00000000000000	0.00000000000000	0.00000000000000	0.00000000000000	
19.16658400000000	41.11580400000000	799.38734499999998	60.79402800000000	0.33898600000000	0.00000000000000	0.12192400000000	0.00000000000000	0.00000000000000	0.00000000000000	0.00000000000000	0.00000000000000	0.00000000000000	0.00000000000000	30.18462800000000	0.00000000000000	0.00000000000000	0.00000000000000	0.00000000000000	
19.16825300000000	40.67368000000000	800.85650699999997	60.95710200000000	0.33835900000000	0.00000000000000	0.12193300000000	0.00000000000000	0.00000000000000	0.00000000000000	0.00000000000000	0.00000000000000	0.00000000000000	0.00000000000000	30.29416000000000	0.00000000000000	0.00000000000000	0.00000000000000	0.00000000000000	
19.16991800000000	40.23242300000000	802.16625599999998	61.10251900000000	0.33774300000000	0.00000000000000	0.12194100000000	0.00000000000000	0.00000000000000	0.00000000000000	0.00000000000000	0.00000000000000	0.00000000000000	0.00000000000000	30.39286200000000	0.00000000000000	0.00000000000000	0.00000000000000	0.00000000000000	
19.17158800000000	39.79163900000000	803.31567600000005	61.22930200000000	0.33713500000000	0.00000000000000	0.12194800000000	0.00000000000000	0.00000000000000	0.00000000000000	0.00000000000000	0.00000000000000	0.00000000000000	0.00000000000000	30.48004300000000	0.00000000000000	0.00000000000000	0.00000000000000	0.00000000000000	
19.17328000000000	39.35094100000000	804.30418199999997	61.33654700000000	0.33653300000000	0.00000000000000	0.12195400000000	0.00000000000000	0.00000000000000	0.00000000000000	0.00000000000000	0.00000000000000	0.00000000000000	0.00000000000000	30.55505700000000	0.00000000000000	0.00000000000000	0.00000000000000	0.00000000000000	
19.17491900000000	38.90995000000000	805.13152300000002	61.42343300000000	0.33593500000000	0.00000000000000	0.12195900000000	0.00000000000000	0.00000000000000	0.00000000000000	0.00000000000000	0.00000000000000	0.00000000000000	0.00000000000000	30.61730700000000	0.00000000000000	0.00000000000000	0.00000000000000	0.00000000000000	
19.17658400000000	38.46830200000000	805.79777899999999	61.48922500000000	0.33533900000000	0.00000000000000	0.12196200000000	0.00000000000000	0.00000000000000	0.00000000000000	0.00000000000000	0.00000000000000	0.00000000000000	0.00000000000000	30.66625000000000	0.00000000000000	0.00000000000000	0.00000000000000	0.00000000000000	
19.17825400000000	38.02564700000000	806.30336399999999	61.53327600000000	0.33474200000000	0.00000000000000	0.12196400000000	0.00000000000000	0.00000000000000	0.00000000000000	0.00000000000000	0.00000000000000	0.00000000000000	0.00000000000000	30.70139700000000	0.00000000000000	0.00000000000000	0.00000000000000	0.00000000000000	
19.17992100000000	37.58165500000000	806.64902700000005	61.55503300000000	0.33414200000000	0.00000000000000	0.12196600000000	0.00000000000000	0.00000000000000	0.00000000000000	0.00000000000000	0.00000000000000	0.00000000000000	0.00000000000000	30.72231900000000	0.00000000000000	0.00000000000000	0.00000000000000	0.00000000000000	
19.18159300000000	37.13601600000000	806.83584599999995	61.55403900000000	0.33353600000000	0.00000000000000	0.12196600000000	0.00000000000000	0.00000000000000	0.00000000000000	0.00000000000000	0.00000000000000	0.00000000000000	0.00000000000000	30.72864800000000	0.00000000000000	0.00000000000000	0.00000000000000	0.00000000000000	
19.18325400000000	36.68844000000000	806.86522800000000	61.52993800000000	0.33292300000000	0.00000000000000	0.12196600000000	0.00000000000000	0.00000000000000	0.00000000000000	0.00000000000000	0.00000000000000	0.00000000000000	0.00000000000000	30.72007700000000	0.00000000000000	0.00000000000000	0.00000000000000	0.00000000000000	
